<svg id="Layer_1" data-name="Layer 1" xmlns="http://www.w3.org/2000/svg" xmlns:xlink="http://www.w3.org/1999/xlink" viewBox="0 0 606.73 469.54"><defs><style>.cls-1{fill:none;}.cls-2{fill:#fff;}.cls-3{opacity:0.1;fill:url(#Emara_pattern_wite);}</style><pattern id="Emara_pattern_wite" data-name="Emara pattern wite" width="127.56" height="127.87" patternUnits="userSpaceOnUse" viewBox="0 0 127.56 127.87"><rect class="cls-1" width="127.56" height="127.87"/><path class="cls-2" d="M127.56,6.25a22.64,22.64,0,0,0,0,25.23v1l0,0a22.67,22.67,0,0,0,0,25.17v.77a23,23,0,0,1-5.49,5.48,23,23,0,0,1,5.49,5.48v.77a22.64,22.64,0,0,0,0,25.23v1l0,0a22.67,22.67,0,0,0,0,25.17v.77a22.86,22.86,0,0,1-5.49,5.48h-.76a22.78,22.78,0,0,0-25.15-.13l-.14.14h-.7l-.15-.15a22.81,22.81,0,0,0-25.15.14h-.77a23,23,0,0,1-5.49-5.48,23,23,0,0,1-5.48,5.48h-.77a22.79,22.79,0,0,0-25.06-.19l-.2.2h-.7s0,0,0,0l-.12-.12a22.79,22.79,0,0,0-25.14.14H5.5A23,23,0,0,1,0,122.38l0,0v-.82l0,0A22.55,22.55,0,0,0,3.86,109,22.57,22.57,0,0,0,0,96.41l0,0,0,0v-1l0,0A22.55,22.55,0,0,0,3.86,82.8,22.59,22.59,0,0,0,0,70.18l0,0v-.82l0,0A23.37,23.37,0,0,1,5.5,63.93,23.18,23.18,0,0,1,0,58.45l0,0v-.82l0,0A22.58,22.58,0,0,0,3.86,45.07,22.55,22.55,0,0,0,0,32.48l0,0,0,0v-1l0,0A22.59,22.59,0,0,0,3.86,18.86,22.55,22.55,0,0,0,0,6.25l0,0V5.45l0,0A23,23,0,0,1,5.5,0h.78A22.68,22.68,0,0,0,19,3.85,22.7,22.7,0,0,0,31.55.06a.06.06,0,0,1,0-.06h.69V0l0,0A22.66,22.66,0,0,0,44.82,3.85,22.68,22.68,0,0,0,57.5,0h.78a23,23,0,0,1,5.48,5.48A23,23,0,0,1,69.25,0H70A22.68,22.68,0,0,0,82.7,3.85,22.67,22.67,0,0,0,95.24.09L95.29,0l0,0H96l0,0a22.68,22.68,0,0,0,12.63,3.82A22.65,22.65,0,0,0,121.3,0h.78a23,23,0,0,1,5.48,5.48ZM95.12,1.09a22.6,22.6,0,0,0-.64,22.71,2.1,2.1,0,0,1,.06-.24,4.82,4.82,0,0,1,1-1.8l0-.05.13-.23.17.28a5.13,5.13,0,0,1,1,1.77,22.6,22.6,0,0,0-1.12-23h0ZM105.32,29l1.28-.09s0,0,0,0h.13a.76.76,0,0,0-.08-.11s0,0,0,0l-.12-.14-.07-.09c-.13-.14-.27-.29-.43-.44l-.13-.12-.23-.21a6.71,6.71,0,0,0-1.66-.93,5.8,5.8,0,0,0-1-.28h0a6.63,6.63,0,0,0-1.47-.17l-.46,0h-.06a5.72,5.72,0,0,0-2.28.6l-.2-.37.31-.19a12.21,12.21,0,0,1,1.73-.95,9.69,9.69,0,0,1,2.15-.7l0,0,.24,0-.19-.1s0,0,0,0l-.4-.18,0,0a5.92,5.92,0,0,0-2-.5h-.1a5.57,5.57,0,0,0-3,.86l-.3.21a.28.28,0,0,1-.13,0l-.08,0a.2.2,0,0,1-.12-.17,6.37,6.37,0,0,0-.21-1.09,4.74,4.74,0,0,0-.65-1.34s0,0,0,0l-.06-.09-.06.09s0,0,0,0a4.74,4.74,0,0,0-.65,1.34,6.37,6.37,0,0,0-.21,1.09.18.18,0,0,1-.12.17l-.08,0a.28.28,0,0,1-.13,0,2.73,2.73,0,0,0-.3-.21,5.66,5.66,0,0,0-3-.86H91a5.46,5.46,0,0,0-.68.08h0a4,4,0,0,0-.65.15l-.16.05a5,5,0,0,0-.5.18l-.16.06-.3.13,0,0-.21.1.26.05a0,0,0,0,0,0,0,9.32,9.32,0,0,1,2.13.72,11.93,11.93,0,0,1,1.7.95l.36.22-.2.37a6.14,6.14,0,0,0-1.32-.47,6.32,6.32,0,0,0-1-.13H90.2l-.46,0a6.77,6.77,0,0,0-2.44.45,6.47,6.47,0,0,0-1.65.93,5.15,5.15,0,0,0-1,1s0,0,0,0a.76.76,0,0,0-.08.11h.13s0,0,0,0L86,29h.08l1.61.12c.53,0,1,.11,1.49.18a.18.18,0,0,1,.15.21.22.22,0,0,1-.2.2,6.76,6.76,0,0,0-2.15.59,6.35,6.35,0,0,0-1.8,1.27,5.73,5.73,0,0,0-1.62,3.18.1.1,0,0,0,0,.1l.06,0h0l.35-.19a27,27,0,0,1,2.49-1.18,11.11,11.11,0,0,1,2.91-.69l.39,0a.19.19,0,0,1,.19.15.2.2,0,0,1-.09.24l-.23.13A6.13,6.13,0,0,0,87.06,39l0,0s0,.07,0,.11l.08-.06h0A18.55,18.55,0,0,0,89,37.71l.4-.32c.77-.62,1.4-1.13,2-1.52a7.56,7.56,0,0,1,1.3-.7.11.11,0,0,1,.08,0,.23.23,0,0,1,.11,0,.22.22,0,0,1,.09.17,5.51,5.51,0,0,0,1.77,3.84.2.2,0,0,1,0,.24L94,41.16s0,0,0,0l-.22.46-.08,0a22.6,22.6,0,0,0,1.91,21.74A22.66,22.66,0,0,0,97.23,41a.11.11,0,0,0,0-.08l-.67-1.28a.2.2,0,0,1,0-.25,5.78,5.78,0,0,0,1.73-4.09.19.19,0,0,1,.1-.16.19.19,0,0,1,.1,0l.08,0a7.67,7.67,0,0,1,1.31.71,23.15,23.15,0,0,1,2,1.52l.4.32a18.55,18.55,0,0,0,1.79,1.36h0l.08.06s0-.08,0-.11l0,0a5.92,5.92,0,0,0-.41-3,6,6,0,0,0-2.27-2.79l-.16-.09-.06,0a.2.2,0,0,1-.09-.24.19.19,0,0,1,.19-.15l.39,0a11.11,11.11,0,0,1,2.91.69,24.91,24.91,0,0,1,2.5,1.19l.34.18h0l.06,0a.1.1,0,0,0,0-.1,5.73,5.73,0,0,0-1.62-3.18,6.35,6.35,0,0,0-1.8-1.27,6.79,6.79,0,0,0-2.19-.59.22.22,0,0,1-.19-.2.21.21,0,0,1,.18-.21c.47-.07,1-.13,1.48-.18l1.62-.12h.07m.21.41h-.26l-1.6.12h-.08a8,8,0,0,1,.86.33c.36-.17.72-.32,1.08-.47M43.6,93.15a21.49,21.49,0,0,0-2.34.93,7.07,7.07,0,0,1,1.45,1.07,6.22,6.22,0,0,1,1.75,3.58,22.72,22.72,0,0,0,18.92-2.81l-.63-.63a22.65,22.65,0,0,0-19-2.18l0,0H43.6m-2.8.66c.4-.19.8-.37,1.21-.53l-.49,0c-.56,0-1.09.07-1.6.12h-.09a5.66,5.66,0,0,1,1,.36h0m-.28-4.87-.59,0a8.56,8.56,0,0,0-2.87.78,3.49,3.49,0,0,0-.34.15,7.27,7.27,0,0,1,3.72.39,6.94,6.94,0,0,1,1.77,1,5.44,5.44,0,0,1,1.29,1.43,23.14,23.14,0,0,1,18.1,1.42l-28.07-28a23,23,0,0,1-.29,22.12h0l0,0a5.89,5.89,0,0,1,3.35-.93,6.59,6.59,0,0,1,3.43,1.25Zm-17.28,0,.51-.39a6.62,6.62,0,0,1,3.46-1.21,6,6,0,0,1,3.36.93l0,0a.25.25,0,0,0,0-.07,23,23,0,0,1-.16-22.27L2.07,94.25a23.15,23.15,0,0,1,18.28-1.54,5.36,5.36,0,0,1,1.28-1.42,7.12,7.12,0,0,1,1.77-1,7.24,7.24,0,0,1,3.77-.38l-.41-.19a7.31,7.31,0,0,0-2.89-.78Zm4.86-12a22.67,22.67,0,0,0,2.66,10.63l0-.1a4.8,4.8,0,0,1,1-1.79l.15-.18h0l0,0,.16.21a4.8,4.8,0,0,1,1,1.79c0,.05,0,.11,0,.16A22.52,22.52,0,0,0,32.36,65l-.47-.47-.2.21A22.49,22.49,0,0,0,28.1,76.93m3.84-50.54a23.37,23.37,0,0,1-5.48,5.48,23,23,0,0,1,5.48,5.48,23.22,23.22,0,0,1,5.49-5.48,23.6,23.6,0,0,1-5.49-5.48M26.06,31.6A22.69,22.69,0,0,0,31.68,26,23,23,0,0,1,30.46,2L2.07,30.32a23.14,23.14,0,0,1,24,1.28M87,25l.51-.38A6.45,6.45,0,0,1,91,23.43a6,6,0,0,1,3.31.89A23,23,0,0,1,94,2.25l-28,28A23,23,0,0,1,84.1,28.81a5.22,5.22,0,0,1,1.28-1.43,7.09,7.09,0,0,1,1.77-1A7.34,7.34,0,0,1,90.92,26c-.13-.06-.27-.13-.41-.18A7.58,7.58,0,0,0,87.62,25ZM76.65,28a22.71,22.71,0,0,0-11.9,3.37l-.59.59v0a22.63,22.63,0,0,0,12.48,3.73,22.79,22.79,0,0,0,6.49-.94,6.16,6.16,0,0,1,1.74-3.53,7.11,7.11,0,0,1,1.45-1.08A23.32,23.32,0,0,0,84,29.25l-.15,0,0,0A22.64,22.64,0,0,0,76.65,28m8.92,1.36c.41.17.82.34,1.22.54l0,0a7,7,0,0,1,.94-.36h-.08l-1.6-.12-.5,0m1.15,10.17a6.27,6.27,0,0,1,.35-3.65A6.46,6.46,0,0,1,89,33.26a10.88,10.88,0,0,0-2.3.61l-.12,0c-.3.15-.61.28-.92.41s-.91.45-1.42.72l-.84.43-.33.17,0-.37v0a23.27,23.27,0,0,1-6.45.92,23.06,23.06,0,0,1-11.79-3.22l29.7,29.62a23,23,0,0,1-.25-23.22,5.86,5.86,0,0,1-1.72-3.66,7.72,7.72,0,0,0-.94.54c-.59.39-1.22.89-2,1.5l-.39.32a19.23,19.23,0,0,1-2.24,1.64l-.27.15-.06-.29M62.64,33a23.19,23.19,0,0,1-24.82-.83,22.82,22.82,0,0,0-5.61,5.61,23,23,0,0,1,.71,24.87ZM33.72,62.47a23.2,23.2,0,0,1,24.17,1.2,23,23,0,0,0,5.61-5.6A23,23,0,0,1,62.37,33.9Zm11.1-2.4a22.74,22.74,0,0,0-12.37,3.66l-.21.21v0l0,0a22.78,22.78,0,0,0,25.24-.09,22.75,22.75,0,0,0-12.69-3.86m0,8.15a23.08,23.08,0,0,1-11.33-3l29,28.94a23,23,0,0,1,1-24.41,22.74,22.74,0,0,0-5.61-5.59,23.12,23.12,0,0,1-13.07,4m13.46-4.29a23.18,23.18,0,0,1,5.48,5.48,23.41,23.41,0,0,1,5.49-5.48,23.22,23.22,0,0,1-5.49-5.48,23.18,23.18,0,0,1-5.48,5.48M64,58.07a22.92,22.92,0,0,0,5.6,5.6,23.19,23.19,0,0,1,24.15-1.21L65.14,33.86A23.1,23.1,0,0,1,64,58.07m5.6,6.13A22.7,22.7,0,0,0,64,69.79a23.08,23.08,0,0,1,.86,24.64L94.23,65.16a23.25,23.25,0,0,1-24.6-1M82.7,67.79A22.66,22.66,0,0,0,95.31,64L95,63.7a22.76,22.76,0,0,0-25,.23A22.69,22.69,0,0,0,82.7,67.79M67.61,45.07a22.61,22.61,0,0,0-3.76-12.49l-.08-.08-.13.12a22.66,22.66,0,0,0,.12,25.06,22.51,22.51,0,0,0,3.85-12.61M63.38,32h0l-.63-.63a22.76,22.76,0,0,0-24.55.52A22.81,22.81,0,0,0,63.38,32m-12.5-4.42A23.19,23.19,0,0,1,61.6,30.21l-28.07-28A23,23,0,0,1,32.21,26a22.65,22.65,0,0,0,5.61,5.61,23.14,23.14,0,0,1,13.06-4M35.79,50.73a22.48,22.48,0,0,0-3.85-12.61,22.64,22.64,0,0,0,0,25.23,22.52,22.52,0,0,0,3.85-12.62M31.42,63.78a22.77,22.77,0,0,0-25.14.15A22.76,22.76,0,0,0,31.55,64a.28.28,0,0,1,0-.09Zm28.5,19a22.59,22.59,0,0,0,3.84,12.62h0a22.59,22.59,0,0,0,0-25.23,22.58,22.58,0,0,0-3.84,12.61m4.26,13.09a22.77,22.77,0,0,0,25.25-.08,22.76,22.76,0,0,0-24.79-.37ZM76.75,91.5a23.17,23.17,0,0,1,13.07,4,22.7,22.7,0,0,0,5.6-5.59,23.09,23.09,0,0,1-1.24-24L65.84,94.23A23.16,23.16,0,0,1,76.75,91.5m18.94-1.18A23.22,23.22,0,0,1,90.2,95.8a22.86,22.86,0,0,1,5.49,5.48,23.41,23.41,0,0,1,5.49-5.48,23.22,23.22,0,0,1-5.49-5.48m.27-.38a22.7,22.7,0,0,0,5.6,5.59,23.18,23.18,0,0,1,23.88-1.35L97.21,66A23.05,23.05,0,0,1,96,89.94m3.57-13A22.58,22.58,0,0,0,96,64.8l-.32-.32-.27.27a22.66,22.66,0,0,0,.29,24.8,22.51,22.51,0,0,0,3.84-12.62M96,64a22.75,22.75,0,0,0,25.31,0,22.73,22.73,0,0,0-25.15-.13Zm10-36.58a5.27,5.27,0,0,1,1.25,1.38,23,23,0,0,1,18.38,1.65L97,1.82a23,23,0,0,1,0,22.36,1.8,1.8,0,0,1,0,.19l0,0a6,6,0,0,1,3.36-.92,6.5,6.5,0,0,1,3.43,1.25l.47.35-.59,0a8.21,8.21,0,0,0-2.87.77l-.34.16a7.16,7.16,0,0,1,3.72.39,6.92,6.92,0,0,1,1.77,1M69.63.26A22.92,22.92,0,0,0,64,5.86a23,23,0,0,1,1,24.45l29-29A23.1,23.1,0,0,1,82.7,4.29a23.1,23.1,0,0,1-13.07-4m-2,18.6A22.48,22.48,0,0,0,63.76,6.25a22.64,22.64,0,0,0,0,25.23h0a22.52,22.52,0,0,0,3.85-12.62M44.82,4.29a23,23,0,0,1-11.32-3l29,28.94a23,23,0,0,1,1-24.41A22.78,22.78,0,0,0,57.89.26a23.05,23.05,0,0,1-13.07,4M31.69.79a22.61,22.61,0,0,0,.25,24.83,22.57,22.57,0,0,0,.42-24.57L31.89.58l-.2.21M4.3,18.86A23,23,0,0,1,1.15,30.5L30.5,1.22A23.15,23.15,0,0,1,19,4.29,23,23,0,0,1,5.9.26,22.69,22.69,0,0,0,.28,5.87a22.94,22.94,0,0,1,4,13M.44,32a22.82,22.82,0,0,0,25.25-.08A22.74,22.74,0,0,0,.86,31.53ZM13,36.16A23.1,23.1,0,0,1,1.13,32.89L31,62.71a23,23,0,0,1,.65-25,22.86,22.86,0,0,0-5.62-5.61,23.1,23.1,0,0,1-13.06,4M.28,58.06a22.65,22.65,0,0,0,5.62,5.6,23.21,23.21,0,0,1,24.27-1.13L1.34,33.78a23,23,0,0,1,3,11.29,22.94,22.94,0,0,1-4,13m4,24.74A23,23,0,0,1,1.15,94.43L30.5,65.15a23.22,23.22,0,0,1-24.6-1A22.65,22.65,0,0,0,.28,69.8a22.94,22.94,0,0,1,4,13M.44,95.88a22.7,22.7,0,0,0,18.94,2.86,6.21,6.21,0,0,1,1.75-3.59,7.24,7.24,0,0,1,1.47-1.08,21.39,21.39,0,0,0-2.29-.91l-.2,0,0,0A22.52,22.52,0,0,0,13,91.94,22.77,22.77,0,0,0,.86,95.46Zm21.44-2.6c.4.16.79.33,1.18.52a5.36,5.36,0,0,1,.94-.36h-.08c-.51-.05-1-.08-1.6-.12l-.44,0M19,123.57a23.19,23.19,0,0,1,11.21,2.89L1.34,97.71A23,23,0,0,1,4.3,109a22.94,22.94,0,0,1-4,13A22.69,22.69,0,0,0,5.9,127.6a23.1,23.1,0,0,1,13.06-4M31,126.65a22.94,22.94,0,0,1-1.4-21.27l0,0,1-2.07a5.88,5.88,0,0,1-1.76-3.7,7.72,7.72,0,0,0-.94.54c-.6.39-1.25.91-2,1.49l-.4.33a18.25,18.25,0,0,1-2.23,1.63l-.27.16-.06-.3a6.24,6.24,0,0,1,.35-3.64,6.5,6.5,0,0,1,1.94-2.64,11.52,11.52,0,0,0-1.86.47,22.66,22.66,0,0,1-2.26,1l-.63.33-.85.44-.33.16,0-.34A23.15,23.15,0,0,1,1.13,96.82Zm.91.63a22.55,22.55,0,0,0,1.79-22l0,0-.21-.39s0,0,0,0l-.67-1.28a.21.21,0,0,1,0-.25,5.81,5.81,0,0,0,1.72-4.09.23.23,0,0,1,.1-.16.2.2,0,0,1,.11,0l.08,0a7.36,7.36,0,0,1,1.31.71,24.8,24.8,0,0,1,2,1.52l.4.32a19.15,19.15,0,0,0,1.8,1.36h0l.07.05a.38.38,0,0,1,0-.1l0,0a6.11,6.11,0,0,0-2.68-5.73l-.16-.09-.07,0a.21.21,0,0,1-.09-.24.21.21,0,0,1,.2-.15l.39,0a11.64,11.64,0,0,1,2.91.7,24.82,24.82,0,0,1,2.49,1.19l.35.18h0l.06,0a.1.1,0,0,0,.05-.1,5.79,5.79,0,0,0-1.62-3.18,6.4,6.4,0,0,0-1.81-1.27,6.48,6.48,0,0,0-2.19-.59.2.2,0,0,1-.18-.2.2.2,0,0,1,.17-.21c.48-.07,1-.13,1.49-.18l1.61-.12h.08l1.28-.09s0,0,0,0H43a.86.86,0,0,1-.07-.1v0A4.47,4.47,0,0,0,42.3,92l-.1-.1L42,91.63a6.37,6.37,0,0,0-1.66-.93,5.61,5.61,0,0,0-.91-.27l-.09,0a5.8,5.8,0,0,0-.93-.14h0l-.45,0-.39,0h-.19a5.42,5.42,0,0,0-.9.13,6.21,6.21,0,0,0-1.33.47l-.19-.36h0l.31-.19a13.31,13.31,0,0,1,1.73-1,9.89,9.89,0,0,1,2.15-.69s0,0,0,0l.23-.05-.19-.09,0,0-.37-.17-.09,0L38,88l-.1,0c-.21-.06-.41-.12-.62-.16h0a5.35,5.35,0,0,0-.65-.07h-.1c-.17,0-.34,0-.51,0l-.26,0a4.52,4.52,0,0,0-.53.11L35,88a5.66,5.66,0,0,0-.58.2l-.17.07a5.29,5.29,0,0,0-.71.37l-.31.22a.25.25,0,0,1-.12,0l-.09,0a.24.24,0,0,1-.12-.17,4.89,4.89,0,0,0-.21-1.09A4.67,4.67,0,0,0,32,86.26l0,0-.06-.09v0h0l0,.08a0,0,0,0,0,0,0c-.06.08-.1.16-.15.23a.22.22,0,0,1-.05.08,5.18,5.18,0,0,0-.44,1A4.89,4.89,0,0,0,31,88.69a.24.24,0,0,1-.12.17l-.09,0a.25.25,0,0,1-.12,0,2.11,2.11,0,0,0-.31-.21,5.54,5.54,0,0,0-3-.86h-.1a4.85,4.85,0,0,0-.63.07,2.29,2.29,0,0,0-.36.07L26,88a3.24,3.24,0,0,0-.41.13l-.24.08-.36.16-.17.07,0,0-.23.11.26,0s0,0,0,0a9.23,9.23,0,0,1,2.12.72,10.91,10.91,0,0,1,1.7.94l.36.23-.2.36a6.91,6.91,0,0,0-1.32-.46,5.66,5.66,0,0,0-.92-.13h-.17l-.39,0-.45,0h-.07a6.58,6.58,0,0,0-.89.13l-.16,0a6.47,6.47,0,0,0-2.52,1.19,4.82,4.82,0,0,0-1,1s0,0,0,0a1,1,0,0,0-.08.11H21s0,0,0,0l1.27.09h.09L24,93c.52,0,1,.11,1.49.18.11,0,.15.12.15.21a.22.22,0,0,1-.2.2,6.45,6.45,0,0,0-2.15.59,6.55,6.55,0,0,0-1.81,1.27,5.86,5.86,0,0,0-1.62,3.18.1.1,0,0,0,.05.1l.06,0h0l.36-.19a26.87,26.87,0,0,1,2.48-1.18,11.64,11.64,0,0,1,2.91-.7l.39,0a.21.21,0,0,1,.2.15.21.21,0,0,1-.09.24,1.77,1.77,0,0,0-.23.14,6.08,6.08,0,0,0-2.68,5.72s0,0,0,0,0,.07,0,.11l.07-.05h0l0,0a18.75,18.75,0,0,0,1.8-1.36l.4-.32a22.66,22.66,0,0,1,2-1.52,7.14,7.14,0,0,1,1.29-.7l.08,0a.2.2,0,0,1,.11,0,.21.21,0,0,1,.1.17A5.51,5.51,0,0,0,31,103.1a.2.2,0,0,1,0,.24l-.84,1.73s0,0,0,0a22.62,22.62,0,0,0,1.72,22.17m4.28-12.61a22.94,22.94,0,0,1-3.3,11.87L62.64,96.9a23.22,23.22,0,0,1-18.15,2.29l0,.35-.33-.16-.84-.44-.75-.38c-.69-.27-1.37-.56-2-.89a11.09,11.09,0,0,0-2-.51,6.53,6.53,0,0,1,1.94,2.63,6.28,6.28,0,0,1,.35,3.65l-.06.3-.27-.16a18.24,18.24,0,0,1-2.23-1.64l-.4-.31a21.57,21.57,0,0,0-2-1.5,7.05,7.05,0,0,0-1-.56,6.23,6.23,0,0,1-1.66,3.9,23,23,0,0,1,2.91,11.2M57.89,127.6A22.78,22.78,0,0,0,63.5,122a23,23,0,0,1-1.13-24.17L33.72,126.4a23.2,23.2,0,0,1,24.17,1.2m2-18.6a22.55,22.55,0,0,0,3.84,12.61,22.62,22.62,0,0,0,0-25.2l-.15.15A22.61,22.61,0,0,0,59.92,109M82.7,123.57a23.18,23.18,0,0,1,11.21,2.88L65.1,97.73A23.07,23.07,0,0,1,64,122a22.92,22.92,0,0,0,5.6,5.6,23.1,23.1,0,0,1,13.07-4m12,3a23.09,23.09,0,0,1,.68-25,22.7,22.7,0,0,0-5.6-5.59,23.27,23.27,0,0,1-24.92.78Zm1,.67a22.64,22.64,0,0,0,0-25.23,22.64,22.64,0,0,0,0,25.23M123.28,109a23.09,23.09,0,0,1,2.94-11.28l-.44.44-28.34,28.3a23.13,23.13,0,0,1,24.24,1.14,22.65,22.65,0,0,0,5.61-5.61,23,23,0,0,1-4-13m3.2-12.15a23.27,23.27,0,0,1-24.92-.78,22.7,22.7,0,0,0-5.6,5.59,23.09,23.09,0,0,1,.68,25Zm.13-1.49A22.73,22.73,0,0,0,102,95.8a22.76,22.76,0,0,0,25.21.1Zm.68-25.56a22.82,22.82,0,0,0-5.61-5.61,23.16,23.16,0,0,1-24.51,1l29.19,29.1a23,23,0,0,1,.93-24.49m-4-24.73a23.05,23.05,0,0,1,3-11.29L97.44,62.52a23.19,23.19,0,0,1,24.24,1.14,22.61,22.61,0,0,0,5.61-5.6,23,23,0,0,1-4-13m3.08-12.18a23.08,23.08,0,0,1-18.12,2.4l0,.35-.33-.17-.84-.43-.63-.33a22,22,0,0,1-2.34-1,11.68,11.68,0,0,0-1.79-.44,6.4,6.4,0,0,1,1.94,2.63,6.27,6.27,0,0,1,.35,3.65l-.06.29-.27-.15A17.4,17.4,0,0,1,102.05,38l-.39-.31a24.15,24.15,0,0,0-2-1.5,8.12,8.12,0,0,0-1-.55A6.1,6.1,0,0,1,97,39.62l.82,1.55-.06,0a22.93,22.93,0,0,1-1.29,21.51Zm.47-1.25a22.73,22.73,0,0,0-19.4-2.5l0,.09-.33,0h-.09c-.72.25-1.44.53-2.13.85a7,7,0,0,1,1.53,1.13,6.16,6.16,0,0,1,1.75,3.58,22.87,22.87,0,0,0,6.29.89,22.57,22.57,0,0,0,12.6-3.81Zm-3.55-12.78a23,23,0,0,1,4-13A22.65,22.65,0,0,0,121.68.26a23,23,0,0,1-13.05,4,23,23,0,0,1-11.75-3.2l29.68,29.62a23,23,0,0,1-3.28-11.85"/></pattern></defs><title>Emara-bg</title><rect class="cls-3" width="606.73" height="469.54"/></svg>